<svg xmlns="http://www.w3.org/2000/svg" width="215" height="13" viewBox="0 0 215 13" fill="none">
  <g clipPath="url(#clip0_377_6715)">
    <path d="M18.176 12.7227H31.5347V10.0818H21.6753V7.70361H31.5347V5.04816H21.6753V2.91797H31.5347V0.281982H18.176V12.7227Z" fill="white"/>
    <path d="M81.429 0.281982V7.80574L73.1482 0.281982H70.5122V12.7227H74.0064V5.20379L82.2872 12.7227H84.9232V0.281982H81.429Z" fill="white"/>
    <path d="M52.3362 12.7227H66.7472V0.281982H52.3362V12.7178V12.7227ZM55.8304 2.92284H63.253V10.0867H55.8304V2.91797V2.92284Z" fill="white"/>
    <path d="M10.9219 7.80574L2.64108 0.281982H0V12.7227H3.49419V5.20379L11.775 12.7227H14.411V0.281982H10.9219V7.80574Z" fill="white"/>
    <path d="M45.5318 0.281982L41.9405 4.13383L38.3595 0.281982H33.9355L39.7337 6.5072L33.9458 12.7227H38.3646L41.9405 8.8757L45.5215 12.7227H49.9404L44.1525 6.5072L49.9506 0.281982H45.5318Z" fill="white"/>
    <path d="M132.432 13H146.393V10.2473H136.084V7.7572H146.393V4.98504H136.084V2.75758H146.393V0H132.432V13Z" fill="#0077FF"/>
    <path d="M161.361 7.8642L152.707 0H149.954V13H153.606V5.14067L162.26 13H165.014V0H161.361V7.8642Z" fill="#0077FF"/>
    <path d="M94.4453 13H109.51V0H94.4453V13ZM98.0979 2.75271H105.858V10.2473H98.0979V2.75758V2.75271Z" fill="#0077FF"/>
    <path d="M184.768 0H172.871V13H176.523V8.46727H184.763V13H188.416V0H184.763H184.768ZM176.528 5.6951V2.75758H184.768V5.6951H176.528Z" fill="#0077FF"/>
    <path d="M113.444 0V13H117.096V8.33595H128.871V0H113.444ZM125.219 5.56865H117.101V2.75758H125.219V5.56865Z" fill="#0077FF"/>
    <path d="M192.359 0V13H196.012V8.33595H207.782V0H192.354H192.359ZM204.129 5.56865H196.012V2.75758H204.129V5.56865Z" fill="#0077FF"/>
    <path d="M214.995 0H211.342V13H214.995V0Z" fill="#0077FF"/>
  </g>
  <defs>
    <clipPath id="clip0_377_6715">
      <rect width="215" height="13" fill="white"/>
    </clipPath>
  </defs>
</svg>